<svg xmlns="http://www.w3.org/2000/svg" width="512" height="512" enable-background="new 0 0 512 512" viewBox="0 0 512 512" id="celcius"><path fill="#DCF1FC" d="M249.68,342.076V64.182c0-17.452-14.148-31.6-31.601-31.6h-0.342c-17.452,0-31.6,14.147-31.6,31.6
				v277.895c-24.024,11.766-40.571,36.447-40.571,65c0,39.955,32.389,72.342,72.342,72.342c39.954,0,72.343-32.387,72.343-72.342
				C290.251,378.523,273.704,353.842,249.68,342.076z"></path><path fill="#939393" d="M231.843,355.574V65.236c0-7.695-6.239-13.935-13.935-13.935s-13.935,6.239-13.935,13.935v290.338
				c-22.202,6.107-38.519,26.426-38.519,50.568c0,28.969,23.484,52.453,52.453,52.453c28.97,0,52.454-23.484,52.454-52.453
				C270.362,382,254.046,361.682,231.843,355.574z"></path><path fill="#ED1F24" d="M231.844,178.686h-27.87v176.89c-22.2,6.11-38.52,26.431-38.52,50.57c0,28.97,23.489,52.45,52.46,52.45
			c28.97,0,52.449-23.48,52.449-52.45c0-24.14-16.319-44.46-38.52-50.57V178.686z"></path><path d="M270.362,406.143c0,22.92-14.7,42.42-35.2,49.549c13.99-9.42,23.2-25.41,23.2-43.549
				c0-24.141-16.311-44.461-38.521-50.57V71.242c0-7.52-5.939-13.64-13.38-13.92c2.5-3.64,6.69-6.02,11.45-6.02
				c7.7,0,13.93,6.24,13.93,13.94v290.331C254.052,361.682,270.362,382.002,270.362,406.143z" opacity=".1"></path><g><path fill="#939393" d="M157.955 185.686c-10.889 0-21.778 0-32.667 0-6.449 0-6.449 10 0 10 10.889 0 21.778 0 32.667 0C164.404 195.686 164.404 185.686 157.955 185.686L157.955 185.686zM157.955 288.686c-10.889 0-21.778 0-32.667 0-6.449 0-6.449 10 0 10 10.889 0 21.778 0 32.667 0C164.404 298.686 164.404 288.686 157.955 288.686L157.955 288.686zM157.955 268.084c-7.722 0-15.445 0-23.167 0-6.449 0-6.449 10 0 10 7.722 0 15.445 0 23.167 0C164.404 278.084 164.404 268.084 157.955 268.084L157.955 268.084zM157.955 247.485c-7.722 0-15.445 0-23.167 0-6.449 0-6.449 10 0 10 7.722 0 15.445 0 23.167 0C164.404 257.485 164.404 247.485 157.955 247.485L157.955 247.485zM157.955 226.886c-7.722 0-15.445 0-23.167 0-6.449 0-6.449 10 0 10 7.722 0 15.445 0 23.167 0C164.404 236.886 164.404 226.886 157.955 226.886L157.955 226.886zM157.955 206.285c-7.722 0-15.445 0-23.167 0-6.449 0-6.449 10 0 10 7.722 0 15.445 0 23.167 0C164.404 216.285 164.404 206.285 157.955 206.285L157.955 206.285zM157.955 82.686c-10.889 0-21.778 0-32.667 0-6.449 0-6.449 10 0 10 10.889 0 21.778 0 32.667 0C164.404 92.686 164.404 82.686 157.955 82.686L157.955 82.686zM157.955 165.085c-7.722 0-15.445 0-23.167 0-6.449 0-6.449 10 0 10 7.722 0 15.445 0 23.167 0C164.404 175.085 164.404 165.085 157.955 165.085L157.955 165.085zM157.955 144.485c-7.722 0-15.445 0-23.167 0-6.449 0-6.449 10 0 10 7.722 0 15.445 0 23.167 0C164.404 154.485 164.404 144.485 157.955 144.485L157.955 144.485zM157.955 123.886c-7.722 0-15.445 0-23.167 0-6.449 0-6.449 10 0 10 7.722 0 15.445 0 23.167 0C164.404 133.886 164.404 123.886 157.955 123.886L157.955 123.886zM157.955 103.286c-7.722 0-15.445 0-23.167 0-6.449 0-6.449 10 0 10 7.722 0 15.445 0 23.167 0C164.404 113.286 164.404 103.286 157.955 103.286L157.955 103.286z"></path></g><g><path fill="#939393" d="M383.177 132.994c-14.155 15.366-36.463 20.666-55.753 12.08-17.359-7.727-28.263-25.192-28.505-44.02-.239-18.577 11.01-35.206 27.32-43.457 19.206-9.716 42.701-3.938 56.938 11.516 4.378 4.752 11.432-2.338 7.07-7.071-16.821-18.26-43.856-24.332-66.671-14.176-20.597 9.169-33.774 29.388-34.64 51.794-.863 22.364 12.509 43.497 32.256 53.486 22.198 11.23 49.317 6.233 66.979-10.89.713-.71 1.404-1.44 2.075-2.19C394.608 135.332 387.554 128.242 383.177 132.994L383.177 132.994zM293.999 47.877c-.478 9.605-12.731 9.605-13.209 0C280.311 38.235 293.524 38.328 293.999 47.877c.319 6.417 10.32 6.448 10 0-.475-9.548-6.849-17.005-16.605-17.574-9.732-.568-16.172 8.891-16.604 17.574-.474 9.526 7.554 17.042 16.604 17.57 9.732.568 16.174-8.885 16.605-17.57C304.319 41.429 294.318 41.459 293.999 47.877z"></path></g></svg>