<svg xmlns="http://www.w3.org/2000/svg" viewBox="0 0 64 64" id="sun"><circle cx="32" cy="32" r="20" fill="#ffed09" stroke="#d38509" stroke-linecap="round" stroke-linejoin="round" stroke-width="2"></circle><path fill="none" stroke="#d38509" stroke-linecap="round" stroke-linejoin="round" stroke-width="2" d="M32 9V2M20.5 12.08 17 6.02M12.08 20.5 6.02 17M9 32H2M12.08 43.5 6.02 47M20.5 51.92 17 57.98M32 55v7M43.5 51.92l3.5 6.06M51.92 43.5l6.06 3.5M55 32h7M51.92 20.5l6.06-3.5M43.5 12.08 47 6.02"></path><path fill="#f7f8f9" d="M25.5 35h13v.5A6.5 6.5 0 0 1 32 42a6.5 6.5 0 0 1-6.5-6.5V35z"></path><path fill="none" stroke="#1c1c1c" stroke-linecap="round" stroke-miterlimit="10" stroke-width="2" d="M22 27a2 2 0 0 1 4 0M38 27a2 2 0 0 1 4 0"></path><ellipse cx="19.5" cy="33" fill="#f5003c" rx="4.5" ry="2"></ellipse><ellipse cx="44.5" cy="33" fill="#f5003c" rx="4.5" ry="2"></ellipse></svg>